<?xml version="1.0" encoding="UTF-8" standalone="no"?>
<!-- Created with Inkscape (http://www.inkscape.org/) -->

<svg
   width="1920"
   height="1080"
   viewBox="0 0 384 216"
   version="1.1"
   id="svg5"
   inkscape:version="1.3.2 (091e20e, 2023-11-25, custom)"
   sodipodi:docname="banner.svg"
   xml:space="preserve"
   inkscape:export-filename="banner.png"
   inkscape:export-xdpi="96"
   inkscape:export-ydpi="96"
   xmlns:inkscape="http://www.inkscape.org/namespaces/inkscape"
   xmlns:sodipodi="http://sodipodi.sourceforge.net/DTD/sodipodi-0.dtd"
   xmlns="http://www.w3.org/2000/svg"
   xmlns:svg="http://www.w3.org/2000/svg"><sodipodi:namedview
     id="namedview7"
     pagecolor="#505050"
     bordercolor="#eeeeee"
     borderopacity="1"
     inkscape:showpageshadow="0"
     inkscape:pageopacity="0"
     inkscape:pagecheckerboard="0"
     inkscape:deskcolor="#505050"
     inkscape:document-units="px"
     showgrid="false"
     inkscape:zoom="0.35455948"
     inkscape:cx="980.08943"
     inkscape:cy="844.71017"
     inkscape:window-width="1920"
     inkscape:window-height="1051"
     inkscape:window-x="-9"
     inkscape:window-y="-9"
     inkscape:window-maximized="1"
     inkscape:current-layer="layer1" /><defs
     id="defs2" /><g
     inkscape:label="Layer 1"
     inkscape:groupmode="layer"
     id="layer1"><g
       id="g623"
       transform="translate(-42.532599,-6.8731098)"><rect
         x="42.5326"
         y="6.8731098"
         width="384"
         height="216"
         fill="#001220"
         id="rect182"
         style="stroke-width:0.2" /><g
         transform="matrix(0.2,0,0,0.2,426.5326,222.87311)"
         id="g264"><path
           d="m -378,0 c 3,-18.1 6,-36.2 12.8,-52.5 6.7,-16.3 17.2,-30.8 18.8,-49.2 1.6,-18.4 -5.6,-40.7 3.5,-54.9 9,-14.3 34.4,-20.5 47.6,-33.2 13.2,-12.7 14.3,-31.8 22.5,-46.6 8.2,-14.8 23.5,-25.3 39,-33.4 15.5,-8.1 31.2,-13.9 44,-25.5 12.9,-11.5 22.9,-28.8 36.5,-40.4 13.6,-11.5 30.8,-17.2 47.9,-23.2 17.1,-5.9 34.1,-12 51.6,-15.3 17.5,-3.2 35.7,-3.5 53.8,-3.8 V 0 Z"
           fill="#051b2a"
           id="path254" /><path
           d="m -302.4,0 c 2.4,-14.5 4.8,-29 10.2,-42 5.4,-13.1 13.8,-24.7 15.1,-39.4 1.3,-14.7 -4.5,-32.5 2.8,-43.9 7.2,-11.4 27.5,-16.4 38.1,-26.5 10.5,-10.2 11.4,-25.5 17.9,-37.3 6.6,-11.9 18.9,-20.2 31.3,-26.7 12.4,-6.5 24.9,-11.2 35.2,-20.4 10.3,-9.3 18.3,-23.1 29.2,-32.3 10.9,-9.2 24.6,-13.8 38.3,-18.6 13.7,-4.7 27.2,-9.6 41.3,-12.2 14,-2.6 28.5,-2.9 43,-3.1 V 0 Z"
           fill="#0a2c3e"
           id="path256" /><path
           d="m -226.8,0 c 1.8,-10.9 3.6,-21.7 7.7,-31.5 4,-9.8 10.3,-18.5 11.3,-29.5 0.9,-11.1 -3.4,-24.4 2,-33 5.5,-8.5 20.7,-12.2 28.6,-19.9 8,-7.6 8.6,-19.1 13.5,-27.9 4.9,-8.9 14.1,-15.2 23.4,-20.1 9.3,-4.9 18.7,-8.3 26.4,-15.3 7.7,-6.9 13.8,-17.3 21.9,-24.2 8.2,-6.9 18.5,-10.3 28.8,-13.9 10.2,-3.6 20.4,-7.3 30.9,-9.2 10.5,-1.9 21.4,-2.1 32.3,-2.3 V 0 Z"
           fill="#0f3e53"
           id="path258" /><path
           d="m -151.2,0 c 1.2,-7.2 2.4,-14.5 5.1,-21 2.7,-6.5 6.9,-12.3 7.5,-19.7 0.7,-7.3 -2.2,-16.2 1.4,-21.9 3.7,-5.7 13.8,-8.2 19.1,-13.3 5.3,-5.1 5.7,-12.7 9,-18.7 3.2,-5.9 9.4,-10.1 15.6,-13.3 6.2,-3.3 12.5,-5.6 17.6,-10.2 5.1,-4.6 9.1,-11.6 14.6,-16.2 5.4,-4.6 12.3,-6.9 19.2,-9.2 6.8,-2.4 13.6,-4.9 20.6,-6.2 7,-1.3 14.2,-1.4 21.5,-1.5 V 0 Z"
           fill="#135168"
           id="path260" /><path
           d="m -75.6,0 c 0.6,-3.6 1.2,-7.2 2.6,-10.5 1.3,-3.3 3.4,-6.2 3.7,-9.8 0.3,-3.7 -1.1,-8.2 0.7,-11 1.8,-2.9 6.9,-4.1 9.5,-6.7 2.7,-2.5 2.9,-6.3 4.5,-9.3 1.7,-2.9 4.7,-5 7.8,-6.7 3.1,-1.6 6.3,-2.7 8.8,-5.1 2.6,-2.3 4.6,-5.7 7.3,-8 2.8,-2.3 6.2,-3.5 9.6,-4.7 3.4,-1.2 6.8,-2.4 10.3,-3 3.5,-0.7 7.2,-0.7 10.8,-0.8 V 0 Z"
           fill="#145b73"
           id="path262" /></g><g
         id="g276"
         transform="matrix(0.2,0,0,0.2,42.532599,6.8731099)"><path
           d="m 378,0 c -1.9,17.9 -3.7,35.8 -6.8,53.4 -3.1,17.5 -7.5,34.7 -13.3,51.7 -5.9,16.9 -13.2,33.6 -24.1,47.4 -10.8,13.7 -25.1,24.5 -31.8,41.6 -6.6,17.1 -5.6,40.5 -16.3,53.4 -10.7,13 -33.1,15.5 -47.3,27.6 -14.3,12.1 -20.3,33.7 -35.7,40.4 -15.3,6.6 -40,-1.6 -58.1,1.1 -18.2,2.6 -29.9,16.3 -44.3,25 -14.4,8.7 -31.5,12.5 -48.6,17.7 C 34.5,364.6 17.2,371.3 0,378 V 0 Z"
           fill="#051b2a"
           id="path266" /><path
           d="m 302.4,0 c -1.5,14.3 -3,28.6 -5.5,42.7 -2.4,14 -5.9,27.8 -10.6,41.4 -4.7,13.5 -10.6,26.9 -19.2,37.9 -8.7,11 -20.2,19.6 -25.5,33.3 -5.3,13.6 -4.5,32.4 -13.1,42.7 -8.5,10.4 -26.4,12.4 -37.8,22.1 -11.4,9.6 -16.2,26.9 -28.5,32.3 -12.3,5.3 -32,-1.3 -46.5,0.8 -14.6,2.2 -23.9,13.1 -35.5,20.1 -11.5,6.9 -25.1,9.9 -38.9,14.1 -13.7,4.2 -27.5,9.6 -41.3,15 V 0 Z"
           fill="#0a2c3e"
           id="path268" /><path
           d="m 226.8,0 c -1.1,10.7 -2.2,21.5 -4.1,32 -1.9,10.6 -4.5,20.9 -8,31.1 -3.5,10.1 -7.9,20.1 -14.4,28.4 -6.5,8.2 -15.1,14.7 -19.1,25 -4,10.2 -3.4,24.2 -9.8,32 -6.4,7.8 -19.8,9.3 -28.4,16.6 -8.5,7.2 -12.1,20.2 -21.4,24.2 -9.2,4 -24,-1 -34.9,0.6 -10.9,1.6 -17.9,9.8 -26.5,15 -8.7,5.3 -18.9,7.5 -29.2,10.7 -10.3,3.1 -20.7,7.2 -31,11.2 V 0 Z"
           fill="#0f3e53"
           id="path270" /><path
           d="m 151.2,0 c -0.7,7.2 -1.5,14.3 -2.7,21.3 -1.3,7.1 -3,14 -5.3,20.7 -2.4,6.8 -5.3,13.5 -9.7,19 -4.3,5.5 -10,9.8 -12.7,16.6 -2.7,6.9 -2.3,16.2 -6.5,21.4 -4.3,5.2 -13.3,6.2 -19,11 -5.6,4.9 -8.1,13.5 -14.2,16.2 -6.1,2.7 -16,-0.7 -23.3,0.4 -7.2,1.1 -11.9,6.5 -17.7,10 -5.7,3.5 -12.6,5 -19.4,7.1 -6.9,2.1 -13.8,4.8 -20.7,7.5 V 0 Z"
           fill="#135168"
           id="path272" /><path
           d="m 75.6,0 c -0.4,3.6 -0.7,7.2 -1.4,10.7 -0.6,3.5 -1.5,6.9 -2.6,10.3 -1.2,3.4 -2.7,6.7 -4.8,9.5 -2.2,2.7 -5.1,4.9 -6.4,8.3 -1.3,3.4 -1.1,8.1 -3.3,10.7 -2.1,2.6 -6.6,3.1 -9.4,5.5 -2.9,2.4 -4.1,6.8 -7.2,8.1 -3,1.3 -8,-0.3 -11.6,0.2 -3.6,0.5 -6,3.3 -8.8,5 -2.9,1.8 -6.3,2.5 -9.8,3.6 -3.4,1 -6.9,2.4 -10.3,3.7 V 0 Z"
           fill="#145b73"
           id="path274" /></g></g><text
       xml:space="preserve"
       style="font-size:38.4px;font-family:'Mona Sans';-inkscape-font-specification:'Mona Sans';text-align:center;text-anchor:middle;fill:#ffffff;stroke:#f5cdb8;stroke-width:0;stroke-linecap:round;paint-order:stroke fill markers"
       x="191.1552"
       y="94.617599"
       id="text679"><tspan
         sodipodi:role="line"
         id="tspan677"
         style="font-style:normal;font-variant:normal;font-weight:300;font-stretch:normal;font-size:38.4px;font-family:'Mona Sans';-inkscape-font-specification:'Mona Sans Light';stroke-width:0"
         x="191.1552"
         y="94.617599">Naveen's</tspan><tspan
         sodipodi:role="line"
         style="font-style:normal;font-variant:normal;font-weight:300;font-stretch:normal;font-size:38.4px;font-family:'Mona Sans';-inkscape-font-specification:'Mona Sans Light';stroke-width:0"
         x="191.1552"
         y="142.6176"
         id="tspan1">Projects</tspan></text><g
       id="surface1"
       transform="matrix(0.10565172,0,0,0.10565172,11.098403,152.11848)"><path
         style="fill:none;stroke:#ffffff;stroke-width:0.01;stroke-linecap:butt;stroke-linejoin:miter;stroke-miterlimit:10;stroke-opacity:1"
         d="M 0,0 C 0,0 0.5,1 1,0"
         transform="scale(500)"
         id="path1" /><path
         style="fill:none;stroke:#ffffff;stroke-width:0.01;stroke-linecap:butt;stroke-linejoin:miter;stroke-miterlimit:10;stroke-opacity:1"
         d="M 0,1 C 0,1 0.5,0 1,1"
         transform="scale(500)"
         id="path2" /><path
         style="fill:none;stroke:#ffffff;stroke-width:0.01;stroke-linecap:butt;stroke-linejoin:miter;stroke-miterlimit:10;stroke-opacity:1"
         d="M 0,0 C 0,0 1,0.5 0,1"
         transform="scale(500)"
         id="path3" /><path
         style="fill:none;stroke:#ffffff;stroke-width:0.01;stroke-linecap:butt;stroke-linejoin:miter;stroke-miterlimit:10;stroke-opacity:1"
         d="M 1,0 C 1,0 0,0.5 1,1"
         transform="scale(500)"
         id="path4" /><path
         style="fill:none;stroke:#ffffff;stroke-width:0.01;stroke-linecap:butt;stroke-linejoin:miter;stroke-miterlimit:10;stroke-opacity:1"
         d="M 0,0 1,1"
         transform="scale(500)"
         id="path5" /><path
         style="fill:none;stroke:#ffffff;stroke-width:0.01;stroke-linecap:butt;stroke-linejoin:miter;stroke-miterlimit:10;stroke-opacity:1"
         d="M 1,0 0,1"
         transform="scale(500)"
         id="path6" /><path
         style="fill:none;stroke:#ffffff;stroke-width:0.01;stroke-linecap:butt;stroke-linejoin:miter;stroke-miterlimit:10;stroke-opacity:1"
         d="M 0,0 C 0,0 0.5,0.5 0,1"
         transform="scale(500)"
         id="path7" /><path
         style="fill:none;stroke:#ffffff;stroke-width:0.01;stroke-linecap:butt;stroke-linejoin:miter;stroke-miterlimit:10;stroke-opacity:1"
         d="M 1,1 C 1,1 0.5,0.5 1,0"
         transform="scale(500)"
         id="path8" /><path
         style="fill:none;stroke:#ffffff;stroke-width:0.01;stroke-linecap:butt;stroke-linejoin:miter;stroke-miterlimit:10;stroke-opacity:1"
         d="M 0,0 C 0,0 0.5,0.5 1,0"
         transform="scale(500)"
         id="path9" /><path
         style="fill:none;stroke:#ffffff;stroke-width:0.01;stroke-linecap:butt;stroke-linejoin:miter;stroke-miterlimit:10;stroke-opacity:1"
         d="M 0,1 C 0,1 0.5,0.5 1,1"
         transform="scale(500)"
         id="path10" /></g></g></svg>
