<svg xmlns="http://www.w3.org/2000/svg">
  <defs>
    <!-- astro icon -->
    <symbol id="astro" viewBox="0 0 85 107">
      <path
        d="M27.5894 91.1365C22.7555 86.7178 21.3444 77.4335 23.3583 70.7072C26.8503 74.948 31.6888 76.2914 36.7005 77.0497C44.4375 78.2199 52.0359 77.7822 59.2232 74.2459C60.0454 73.841 60.8052 73.3027 61.7036 72.7574C62.378 74.714 62.5535 76.6892 62.318 78.6996C61.7452 83.5957 59.3086 87.3778 55.4332 90.2448C53.8835 91.3916 52.2437 92.4167 50.6432 93.4979C45.7262 96.8213 44.3959 100.718 46.2435 106.386C46.2874 106.525 46.3267 106.663 46.426 107C43.9155 105.876 42.0817 104.24 40.6845 102.089C39.2087 99.8193 38.5066 97.3081 38.4696 94.5909C38.4511 93.2686 38.4511 91.9345 38.2733 90.6309C37.8391 87.4527 36.3471 86.0297 33.5364 85.9478C30.6518 85.8636 28.37 87.6469 27.7649 90.4554C27.7187 90.6707 27.6517 90.8837 27.5847 91.1341L27.5894 91.1365Z"
        fill="#F041FF" />
      <path
        d="M0 69.5866C0 69.5866 14.3139 62.6137 28.6678 62.6137L39.4901 29.1204C39.8953 27.5007 41.0783 26.3999 42.4139 26.3999C43.7495 26.3999 44.9325 27.5007 45.3377 29.1204L56.1601 62.6137C73.1601 62.6137 84.8278 69.5866 84.8278 69.5866C84.8278 69.5866 60.5145 3.35233 60.467 3.21944C59.7692 1.2612 58.5911 0 57.0029 0H27.8274C26.2392 0 25.1087 1.2612 24.3634 3.21944C24.3108 3.34983 0 69.5866 0 69.5866Z"
        fill="currentColor" />
    </symbol>

    <!-- javascript icon -->
    <symbol id="javascript" viewBox="0 0 630 630">
      <rect width="630" height="630" fill="#f7df1e" />
      <path fill="black"
        d="m423.2 492.19c12.69 20.72 29.2 35.95 58.4 35.95 24.53 0 40.2-12.26 40.2-29.2 0-20.3-16.1-27.49-43.1-39.3l-14.8-6.35c-42.72-18.2-71.1-41-71.1-89.2 0-44.4 33.83-78.2 86.7-78.2 37.64 0 64.7 13.1 84.2 47.4l-46.1 29.6c-10.15-18.2-21.1-25.37-38.1-25.37-17.34 0-28.33 11-28.33 25.37 0 17.76 11 24.95 36.4 35.95l14.8 6.34c50.3 21.57 78.7 43.56 78.7 93 0 53.3-41.87 82.5-98.1 82.5-54.98 0-90.5-26.2-107.88-60.54zm-209.13 5.13c9.3 16.5 17.76 30.45 38.1 30.45 19.45 0 31.72-7.61 31.72-37.2v-201.3h59.2v202.1c0 61.3-35.94 89.2-88.4 89.2-47.4 0-74.85-24.53-88.81-54.075z" />
    </symbol>

    <!-- typescript icon -->
    <symbol id="typescript" fill="none" viewBox="0 0 512 512">
      <rect fill="#3178c6" height="512" rx="50" width="512" />
      <rect fill="#3178c6" height="512" rx="50" width="512" />
      <path clip-rule="evenodd" fill="#fff" fill-rule="evenodd"
        d="m316.939 407.424v50.061c8.138 4.172 17.763 7.3 28.875 9.386s22.823 3.129 35.135 3.129c11.999 0 23.397-1.147 34.196-3.442 10.799-2.294 20.268-6.075 28.406-11.342 8.138-5.266 14.581-12.15 19.328-20.65s7.121-19.007 7.121-31.522c0-9.074-1.356-17.026-4.069-23.857s-6.625-12.906-11.738-18.225c-5.112-5.319-11.242-10.091-18.389-14.315s-15.207-8.213-24.18-11.967c-6.573-2.712-12.468-5.345-17.685-7.9-5.217-2.556-9.651-5.163-13.303-7.822-3.652-2.66-6.469-5.476-8.451-8.448-1.982-2.973-2.974-6.336-2.974-10.091 0-3.441.887-6.544 2.661-9.308s4.278-5.136 7.512-7.118c3.235-1.981 7.199-3.52 11.894-4.615 4.696-1.095 9.912-1.642 15.651-1.642 4.173 0 8.581.313 13.224.938 4.643.626 9.312 1.591 14.008 2.894 4.695 1.304 9.259 2.947 13.694 4.928 4.434 1.982 8.529 4.276 12.285 6.884v-46.776c-7.616-2.92-15.937-5.084-24.962-6.492s-19.381-2.112-31.066-2.112c-11.895 0-23.163 1.278-33.805 3.833s-20.006 6.544-28.093 11.967c-8.086 5.424-14.476 12.333-19.171 20.729-4.695 8.395-7.043 18.433-7.043 30.114 0 14.914 4.304 27.638 12.912 38.172 8.607 10.533 21.675 19.45 39.204 26.751 6.886 2.816 13.303 5.579 19.25 8.291s11.086 5.528 15.415 8.448c4.33 2.92 7.747 6.101 10.252 9.543 2.504 3.441 3.756 7.352 3.756 11.733 0 3.233-.783 6.231-2.348 8.995s-3.939 5.162-7.121 7.196-7.147 3.624-11.894 4.771c-4.748 1.148-10.303 1.721-16.668 1.721-10.851 0-21.597-1.903-32.24-5.71-10.642-3.806-20.502-9.516-29.579-17.13zm-84.159-123.342h64.22v-41.082h-179v41.082h63.906v182.918h50.874z" />
    </symbol>

    <!-- reactjs icon -->
    <symbol id="reactjs" viewBox="0 0 101 100" fill="none">
      <path
        d="M50.3067 58.8168C55.1758 58.8168 59.1229 54.8697 59.1229 50.0006C59.1229 45.1315 55.1758 41.1844 50.3067 41.1844C45.4376 41.1844 41.4905 45.1315 41.4905 50.0006C41.4905 54.8697 45.4376 58.8168 50.3067 58.8168Z"
        fill="#61DAFB" />
      <path
        d="M50.3066 68.0631C76.4333 68.0631 97.6132 59.9762 97.6132 50.0005C97.6132 40.0249 76.4333 31.938 50.3066 31.938C24.1799 31.938 3 40.0249 3 50.0005C3 59.9762 24.1799 68.0631 50.3066 68.0631Z"
        stroke="#61DAFB" stroke-width="5" />
      <path
        d="M34.664 59.0318C47.7274 81.6582 65.3207 95.9571 73.9599 90.9692C82.5991 85.9814 79.0126 63.5957 65.9492 40.9693C52.8858 18.3428 35.2925 4.04395 26.6533 9.03178C18.0141 14.0196 21.6006 36.4054 34.664 59.0318Z"
        stroke="#61DAFB" stroke-width="5" />
      <path
        d="M34.664 40.9692C21.6007 63.5956 18.0141 85.9814 26.6533 90.9692C35.2925 95.957 52.8859 81.6582 65.9492 59.0318C79.0126 36.4053 82.5991 14.0196 73.9599 9.03176C65.3208 4.04393 47.7274 18.3428 34.664 40.9692Z"
        stroke="#61DAFB" stroke-width="5" />
    </symbol>

    <!-- nextjs2 icon -->
    <symbol id="nextjs2" viewBox="0 0 100 100" fill="none">
      <path
        d="M50 99.9996C77.6142 99.9996 100 77.6139 100 49.9996C100 22.3854 77.6142 -0.000366211 50 -0.000366211C22.3858 -0.000366211 0 22.3854 0 49.9996C0 77.6139 22.3858 99.9996 50 99.9996Z"
        fill="black" />
      <path
        d="M83.06 87.511L38.4122 29.9996H30V69.983H36.7298V38.546L77.7773 91.5803C79.6294 90.3405 81.394 88.9804 83.06 87.511Z"
        fill="url(#paint0_linear_751_7914)" />
      <path d="M70.5558 29.9996H63.8892V69.9996H70.5558V29.9996Z"
        fill="url(#paint1_linear_751_7914)" />

      <defs>
        <!-- nextjs things -->
        <linearGradient id="paint0_linear_751_7914" x1="60.5555" y1="64.7219" x2="80.2778"
          y2="89.1663" gradientUnits="userSpaceOnUse">
          <stop stop-color="white" />
          <stop offset="1" stop-color="white" stop-opacity="0" />
        </linearGradient>
        <linearGradient id="paint1_linear_751_7914" x1="67.2225" y1="29.9996" x2="67.1109"
          y2="59.3748" gradientUnits="userSpaceOnUse">
          <stop stop-color="white" />
          <stop offset="1" stop-color="white" stop-opacity="0" />
        </linearGradient>
      </defs>
    </symbol>

    <!-- js icon -->
    <symbol id="js" viewBox="0 0 100 100" fill="none">
      <path d="M100 0.000488281H0V100H100V0.000488281Z" fill="#F7DF1E" />
      <path
        d="M67.1745 78.1259C69.1888 81.4148 71.8094 83.8323 76.4444 83.8323C80.338 83.8323 82.8253 81.8862 82.8253 79.1973C82.8253 75.9751 80.2698 74.8339 75.984 72.9592L73.6348 71.9513C66.8539 69.0624 62.3491 65.4434 62.3491 57.7926C62.3491 50.745 67.719 45.3799 76.111 45.3799C82.0856 45.3799 86.3809 47.4592 89.4761 52.9037L82.1586 57.6021C80.5475 54.7132 78.8094 53.5751 76.111 53.5751C73.3587 53.5751 71.6142 55.3212 71.6142 57.6021C71.6142 60.4212 73.3602 61.5624 77.392 63.3085L79.7412 64.3148C87.7253 67.7386 92.2333 71.2291 92.2333 79.0767C92.2333 87.537 85.5872 92.1719 76.6618 92.1719C67.9348 92.1719 62.2967 88.0132 59.538 82.5624L67.1745 78.1259ZM33.9793 78.9402C35.4555 81.5592 36.7983 83.7735 40.0269 83.7735C43.1142 83.7735 45.0618 82.5656 45.0618 77.8688V45.9164H54.4586V77.9958C54.4586 87.7259 48.7539 92.1545 40.4269 92.1545C32.9031 92.1545 28.546 88.2608 26.3301 83.5712L33.9793 78.9402Z"
        fill="black" />
    </symbol>

    <symbol id="tailwindcss" viewBox="0 0 100 100" fill="none">
      <path
        d="M50.0002 20.0005C36.6665 20.0005 28.3334 26.6655 24.9996 39.9942C30.0002 33.3292 35.8337 30.8308 42.4999 32.4964C46.3039 33.4468 49.0224 36.2065 52.0323 39.2602C56.9341 44.2345 62.6075 49.9917 75.0009 49.9917C88.3334 49.9917 96.6677 43.3267 100 29.9967C95.0009 36.6617 89.1674 39.1614 82.4999 37.4958C78.6973 36.5454 75.9787 33.7856 72.9689 30.732C68.067 25.7576 62.3924 20.0005 50.0002 20.0005V20.0005ZM24.9996 49.9917C11.6671 49.9917 3.33274 56.6567 0.000244141 69.9866C4.99962 63.3217 10.8331 60.822 17.5006 62.4889C21.3032 63.4405 24.0218 66.199 27.0316 69.2514C31.9335 74.2257 37.6081 79.9841 50.0002 79.9841C63.334 79.9841 71.6671 73.3191 75.0009 59.9892C70.0002 66.6542 64.1668 69.1538 57.5006 67.487C53.6966 66.5379 50.9781 63.7768 47.9682 60.7244C43.0664 55.7501 37.393 49.9917 24.9996 49.9917V49.9917Z"
        fill="#06B6D4" />
    </symbol>

    <symbol id="python" viewBox="0 0 100 100" fill="none">
      <defs>
        <linearGradient id="python-gradient-yellow" x1="150.96111" y1="192.35176" x2="112.03144" y2="137.27299" gradientUnits="userSpaceOnUse" gradientTransform="matrix(0.40484646,0,0,0.40875501,-5.1973571,-2.024845)">
          <stop style="stop-color:#ffd43b;stop-opacity:1" offset="0"/>
          <stop style="stop-color:#ffe873;stop-opacity:1" offset="1"/>
        </linearGradient>
        <linearGradient id="python-gradient-blue" x1="26.648937" y1="20.603781" x2="135.66525" y2="114.39767" gradientUnits="userSpaceOnUse" gradientTransform="matrix(0.40484646,0,0,0.40875501,-5.1973571,-2.024845)">
          <stop style="stop-color:#5a9fd4;stop-opacity:1" offset="0"/>
          <stop style="stop-color:#306998;stop-opacity:1" offset="1"/>
        </linearGradient>
      </defs>
      <g transform="matrix(1.125,0,0,1.125,-1.2902921,-2.6936572)">
        <path
          style="fill:url(#python-gradient-blue);fill-opacity:1;stroke-width:0.719675"
          d="m 45.115024,6.3977153 c -3.298738,0.015328 -6.44896,0.2966626 -9.22083,0.787144 -8.165583,1.4425905 -9.648137,4.4620557 -9.648137,10.0304647 v 7.354174 H 45.542331 V 27.02089 H 26.246057 19.004331 c -5.608035,0 -10.5185903,3.370752 -12.0545493,9.783076 -1.7717093,7.350012 -1.8502942,11.936539 0,19.611133 1.3716481,5.71267 4.6473293,9.783075 10.2553633,9.783076 h 6.6345 v -8.816014 c 0,-6.369049 5.510652,-11.987078 12.054549,-11.987079 h 19.273785 c 5.365138,0 9.648139,-4.417481 9.648137,-9.805567 V 17.215324 c 0,-5.2294 -4.411591,-9.157699 -9.648137,-10.0304647 C 51.853167,6.6330666 48.413763,6.3823874 45.115024,6.3977153 Z M 34.679743,12.312541 c 1.993173,0 3.620863,1.654277 3.620863,3.688332 -2e-6,2.026845 -1.62769,3.665842 -3.620863,3.665842 -2.000318,0 -3.620863,-1.638997 -3.620863,-3.665842 0,-2.034054 1.620545,-3.688332 3.620863,-3.688332 z"/>
        <path
          style="fill:url(#python-gradient-yellow);fill-opacity:1;stroke-width:0.719675"
          d="m 67.222528,27.02089 v 8.568625 c 0,6.64314 -5.632098,12.234468 -12.054549,12.234468 H 35.894194 c -5.279413,0 -9.648137,4.518465 -9.648137,9.805566 v 18.37419 c 0,5.2294 4.547327,8.305275 9.648137,9.805566 6.108116,1.796027 11.96548,2.120615 19.273785,0 4.857915,-1.406525 9.648139,-4.237163 9.648137,-9.805566 V 68.649567 H 45.542331 v -2.451392 h 19.273785 9.64814 c 5.608036,0 7.697819,-3.911725 9.64813,-9.783076 2.014607,-6.044465 1.928887,-11.857198 0,-19.611133 -1.385935,-5.582833 -4.032962,-9.783076 -9.64813,-9.783076 z M 56.38243,73.55235 c 2.000319,2e-6 3.620862,1.638999 3.620862,3.66584 -1e-6,2.034052 -1.620545,3.688332 -3.620862,3.688332 -1.993175,0 -3.620863,-1.65428 -3.620863,-3.688332 10e-7,-2.026841 1.627686,-3.66584 3.620863,-3.66584 z"/>
      </g>
    </symbol>
    <symbol id="selenium" viewBox="0 0 256 269" fill="none">
        <path d="M234.152874,0.00343857381 C234.808025,-0.0379575263 235.429647,0.297028821 235.755341,0.866994098 C236.081036,1.43695938 236.054047,2.14258032 235.685767,2.68600216 L235.685767,2.68600216 L169.388124,92.7434941 C168.902258,93.2919104 168.204691,93.6058549 167.472007,93.6058549 C166.739323,93.6058549 166.041756,93.2919104 165.55589,92.7434941 L165.55589,92.7434941 L142.179265,66.684305 C141.608302,66.0916135 140.79919,65.7901017 139.979599,65.86461 C139.160008,65.9391182 138.418531,66.3815927 137.963808,67.0675283 L137.963808,67.0675283 L123.784543,85.0790267 C123.335922,86.0932522 123.483294,87.2722249 124.167766,88.1448137 L124.167766,88.1448137 L166.322337,131.832278 C166.808203,132.380694 167.50577,132.694639 168.238454,132.694639 C168.971138,132.694639 169.668705,132.380694 170.154571,131.832278 L170.154571,131.832278 L252.930819,38.708999 C253.419531,38.1837537 254.176911,38.0053627 254.848672,38.2572733 C255.520434,38.5091839 255.973764,39.1415911 255.996606,39.8586691 L255.996606,39.8586691 L255.996606,266.343681 C256.028319,266.860939 255.83665,267.366955 255.470206,267.733398 C255.103763,268.099842 254.597747,268.291511 254.080489,268.259798 L254.080489,268.259798 L1.91951123,268.259798 C1.40225345,268.291511 0.896236952,268.099842 0.529793658,267.733398 C0.163350364,267.366955 -0.0283193115,266.860939 0.00339438157,266.343681 L0.00339438157,266.343681 L0.00339438157,1.91955542 C-0.0283193115,1.40229764 0.163350364,0.896281144 0.529793658,0.52983785 C0.896236952,0.163394556 1.40225345,-0.0282751193 1.91951123,0.00343857381 L1.91951123,0.00343857381 Z M169.004901,152.909563 C157.595908,152.708949 146.600443,157.179283 138.568082,165.284007 C130.535722,173.388731 126.164179,184.423846 126.467107,195.830581 C126.467107,222.272993 145.628275,239.134822 170.537794,239.134822 C182.068736,239.421769 193.375993,235.921903 202.728557,229.171014 C203.595534,228.383773 203.758299,227.081655 203.111781,226.105227 L203.111781,226.105227 L196.21376,215.758196 C195.438224,214.868953 194.118537,214.703992 193.147973,215.374973 C187.152367,219.469543 180.095799,221.73297 172.837134,221.88977 C159.424316,221.88977 150.993402,213.458856 149.460509,203.495048 C149.488325,203.083823 149.815731,202.756417 150.226955,202.728601 L150.226955,202.728601 L208.093684,202.728601 C209.327358,202.645153 210.309577,201.662935 210.393025,200.429261 L210.393025,200.429261 L210.393025,198.129921 C210.393025,171.304285 193.531196,152.909563 169.004901,152.909563 Z M111.904618,138.347075 C100.26487,128.832771 85.5368757,123.923439 70.5164945,124.551034 C44.4573053,124.551034 28.3619238,139.879969 28.3619238,158.27469 C28.3619238,200.046038 91.9770032,186.63322 91.9770032,206.177612 C91.9770032,212.309186 85.8454293,218.44076 72.8158347,218.44076 C60.4410031,218.54287 48.5018438,213.876992 39.4754015,205.411165 C38.9365113,204.907341 38.2064628,204.660494 37.4723971,204.733901 C36.7383313,204.807307 36.0716199,205.19383 35.6431678,205.794388 L35.6431678,205.794388 L25.6793602,219.59043 C25.0328421,220.566858 25.1956068,221.868976 26.0625835,222.656217 C36.4096145,232.236801 50.9721026,238.751598 71.2829412,238.751598 C101.174364,238.751598 115.736852,223.422663 116.503299,203.495048 C116.503299,162.106924 52.8882195,173.986849 52.8882195,156.358574 C52.8882195,149.843776 58.63657,145.245096 68.6003776,145.245096 C79.5839899,145.094583 90.2811092,148.750561 98.8750239,155.592127 C99.3802624,156.006036 100.031063,156.198722 100.680205,156.126595 C101.329346,156.054468 101.921977,155.723624 102.324034,155.208903 L102.324034,155.208903 L112.287842,141.796086 C112.701751,141.290847 112.894437,140.640046 112.82231,139.990905 C112.750183,139.341763 112.419339,138.749133 111.904618,138.347075 Z M169.388124,169.771392 C179.811439,169.188344 188.809537,176.998014 189.698963,187.399667 C189.671147,187.810891 189.34374,188.138297 188.932516,188.166113 L188.932516,188.166113 L149.843732,188.166113 C149.432507,188.138297 149.105101,187.810891 149.077285,187.399667 C150.358676,177.20234 159.111948,169.60516 169.388124,169.771392 Z" fill="#2CB134"></path>
    </symbol>
  </defs>
</svg>